<?xml version="1.0" standalone="no"?>
<!DOCTYPE svg PUBLIC "-//W3C//DTD SVG 20010904//EN"
 "http://www.w3.org/TR/2001/REC-SVG-20010904/DTD/svg10.dtd">
<svg version="1.0" xmlns="http://www.w3.org/2000/svg"
 width="700.000000pt" height="60.000000pt" viewBox="0 0 700.000000 60.000000"
 preserveAspectRatio="xMidYMid meet">
<metadata>
Created by potrace 1.16, written by Peter Selinger 2001-2019
</metadata>
<g transform="translate(0.000000,60.000000) scale(0.083632,-0.012000)"
fill="#000000" stroke="none">
<path d="M4800 4988 c0 -7 -58 -152 -129 -323 -128 -308 -129 -310 -160 -313
l-31 -3 0 -69 c0 -54 -7 -87 -32 -152 l-33 -83 -3 63 -3 62 -164 0 c-158 0
-165 1 -165 20 0 19 7 20 165 20 l165 0 0 70 0 70 -235 0 -235 0 0 -155 0
-155 165 0 165 0 0 -25 0 -25 -165 0 -165 0 0 -70 0 -70 195 0 c107 0 195 -2
195 -3 0 -2 -20 -51 -44 -108 l-43 -104 -684 -5 -684 -5 2 -50 c1 -27 9 -129
18 -225 8 -96 33 -384 55 -640 41 -479 52 -609 95 -1105 31 -347 31 -354 46
-525 6 -74 16 -138 22 -141 5 -4 -59 -172 -156 -405 -91 -220 -177 -429 -191
-466 l-25 -68 2814 0 2815 0 0 2478 c0 1362 -3 2487 -6 2500 l-6 22 -1779 0
c-1416 0 -1779 -3 -1779 -12z m217 -1997 c-1 -49 -5 -87 -9 -84 -5 2 -8 -17
-8 -44 0 -26 -3 -65 -7 -86 l-6 -38 -326 -164 -326 -164 313 0 c266 -1 312 -3
312 -16 0 -8 -6 -90 -14 -182 -8 -92 -15 -177 -15 -188 0 -11 -3 -42 -6 -70
-9 -95 -32 -340 -34 -370 -13 -170 -15 -180 -39 -183 -13 -2 -20 -8 -16 -14 4
-6 2 -8 -4 -4 -12 7 -495 -123 -500 -136 -2 -4 -8 -6 -13 -3 -9 6 -85 -13
-104 -25 -5 -4 -165 37 -355 89 l-345 96 -8 45 c-10 65 -43 461 -38 466 2 2
80 4 172 4 l167 0 7 -87 c3 -49 8 -109 11 -134 l5 -46 172 -46 c95 -26 179
-47 187 -47 8 0 92 21 187 48 200 55 179 29 189 222 3 63 8 143 11 178 l5 62
-566 0 c-446 0 -566 3 -566 13 0 6 -7 84 -15 172 -8 87 -11 163 -7 167 5 5
148 78 318 163 l309 154 -332 0 -333 1 0 28 c-1 15 -7 89 -13 165 -7 76 -11
140 -8 142 2 3 374 5 827 5 l822 0 -1 -89z"/>
<path d="M3402 4103 l3 -248 238 -3 237 -2 0 70 0 70 -170 0 -170 0 0 58 c0
31 3 81 6 109 l7 53 161 2 161 3 3 68 3 67 -241 0 -240 0 2 -247z"/>
</g>
</svg>
